<svg width="16" height="17" viewBox="0 0 16 17" fill="none" xmlns="http://www.w3.org/2000/svg">
<path fill-rule="evenodd" clip-rule="evenodd" d="M12.3636 5.77273C12.5785 5.77273 12.7913 5.7304 12.9898 5.64817C13.1884 5.56593 13.3688 5.4454 13.5207 5.29345C13.6727 5.1415 13.7932 4.96111 13.8754 4.76257C13.9577 4.56404 14 4.35125 14 4.13636C14 3.92147 13.9577 3.70869 13.8754 3.51015C13.7932 3.31162 13.6727 3.13123 13.5207 2.97928C13.3688 2.82733 13.1884 2.7068 12.9898 2.62456C12.7913 2.54233 12.5785 2.5 12.3636 2.5C11.9296 2.5 11.5134 2.6724 11.2066 2.97928C10.8997 3.28616 10.7273 3.70237 10.7273 4.13636C10.7273 4.57035 10.8997 4.98657 11.2066 5.29345C11.5134 5.60033 11.9296 5.77273 12.3636 5.77273ZM8 10.1364C8.43399 10.1364 8.85021 9.96396 9.15708 9.65708C9.46396 9.35021 9.63636 8.93399 9.63636 8.5C9.63636 8.06601 9.46396 7.64979 9.15708 7.34292C8.85021 7.03604 8.43399 6.86364 8 6.86364C7.56601 6.86364 7.14979 7.03604 6.84292 7.34292C6.53604 7.64979 6.36364 8.06601 6.36364 8.5C6.36364 8.93399 6.53604 9.35021 6.84292 9.65708C7.14979 9.96396 7.56601 10.1364 8 10.1364ZM5.27273 12.8636C5.27273 13.0785 5.2304 13.2913 5.14817 13.4898C5.06593 13.6884 4.9454 13.8688 4.79345 14.0207C4.6415 14.1727 4.46111 14.2932 4.26257 14.3754C4.06404 14.4577 3.85125 14.5 3.63636 14.5C3.42147 14.5 3.20869 14.4577 3.01015 14.3754C2.81162 14.2932 2.63123 14.1727 2.47928 14.0207C2.32733 13.8688 2.2068 13.6884 2.12456 13.4898C2.04233 13.2913 2 13.0785 2 12.8636C2 12.4296 2.1724 12.0134 2.47928 11.7066C2.78616 11.3997 3.20237 11.2273 3.63636 11.2273C4.07035 11.2273 4.48657 11.3997 4.79345 11.7066C5.10033 12.0134 5.27273 12.4296 5.27273 12.8636ZM12.3636 6.59091C12.5513 6.59091 12.7335 6.56964 12.9091 6.52982V14.5H11.8182V6.52982C11.9938 6.56964 12.176 6.59091 12.3636 6.59091ZM8 10.9545C8.18764 10.9545 8.36982 10.9338 8.54545 10.894V14.5H7.45455V10.894C7.63018 10.9338 7.81236 10.9545 8 10.9545ZM8 6.04545C8.18764 6.04545 8.36982 6.06673 8.54545 6.10655V2.5H7.45455V6.10655C7.63352 6.06592 7.81647 6.04543 8 6.04545ZM3.63636 10.4091C3.824 10.4091 4.00618 10.4304 4.18182 10.4696V2.5H3.09091V10.4696C3.2699 10.4292 3.45286 10.4089 3.63636 10.4091Z" fill="black" fill-opacity="0.6"/>
</svg>
