<svg width="16" height="17" viewBox="0 0 16 17" fill="none" xmlns="http://www.w3.org/2000/svg">
<path fill-rule="evenodd" clip-rule="evenodd" d="M7.33335 3.1307V1.79736H8.66669V3.1307H7.33335ZM2.34335 4.41736L3.28602 5.35936L4.22869 4.4167L3.28669 3.47403L2.34335 4.41736ZM8.00002 3.98003C6.63416 3.98003 5.32423 4.52262 4.35842 5.48843C3.39261 6.45424 2.85002 7.76416 2.85002 9.13003C2.85002 10.4959 3.39261 11.8058 4.35842 12.7716C5.32423 13.7374 6.63416 14.28 8.00002 14.28C9.36588 14.28 10.6758 13.7374 11.6416 12.7716C12.6074 11.8058 13.15 10.4959 13.15 9.13003C13.15 7.76416 12.6074 6.45424 11.6416 5.48843C10.6758 4.52262 9.36588 3.98003 8.00002 3.98003ZM2.00002 9.7967H0.666687V8.46336H2.00002V9.7967ZM12.714 3.47336L11.7714 4.41603L12.7134 5.36003L13.656 4.41736L12.7134 3.4747L12.714 3.47336ZM15.3334 9.79736H14V8.46403H15.3334V9.79736ZM11.7714 13.8447L12.714 14.788L13.6567 13.8447L12.714 12.902L11.7714 13.8447ZM2.34335 13.8447L3.28602 12.902L4.22869 13.8447L3.28602 14.788L2.34335 13.8447ZM7.35935 10.8414L7.83069 10.37L6.88735 9.4267L6.41602 9.89803L5.37135 10.9434L4.90002 11.4147L5.84269 12.3574L6.31402 11.886L7.35935 10.8414Z" fill="black" fill-opacity="0.6"/>
</svg>
