<svg width="16" height="17" viewBox="0 0 16 17" fill="none" xmlns="http://www.w3.org/2000/svg">
<g opacity="0.6">
<path fill-rule="evenodd" clip-rule="evenodd" d="M8.25009 14.3887L8.25454 14.3854L8.26565 14.377C8.33215 14.3267 8.3979 14.2754 8.46287 14.2231C9.24671 13.5965 9.98351 12.9132 10.6673 12.1787C11.2695 11.527 11.8823 10.7659 12.3457 9.95759C12.8079 9.15259 13.139 8.27203 13.139 7.3887C13.139 4.72814 11.1507 2.52759 8.0001 2.52759C4.8501 2.52759 2.86121 4.72814 2.86121 7.3887C2.86121 8.27203 3.19287 9.15259 3.65454 9.95759C4.11787 10.7659 4.73065 11.527 5.33343 12.1781C6.07427 12.9736 6.87717 13.7089 7.73454 14.377L7.74565 14.3854L7.74898 14.3876L7.7501 14.3887L8.0001 14.5759L8.25009 14.3887ZM8.0001 5.72203C7.77908 5.72203 7.56712 5.80983 7.41084 5.96611C7.25456 6.12239 7.16676 6.33435 7.16676 6.55537V6.81259H6.05565V6.55537C6.05565 6.03967 6.26051 5.54509 6.62517 5.18044C6.98982 4.81578 7.4844 4.61092 8.0001 4.61092C8.51579 4.61092 9.01037 4.81578 9.37502 5.18044C9.73968 5.54509 9.94454 6.03967 9.94454 6.55537V7.06203L8.55565 8.29648V8.87037H7.44454V7.79814L8.83343 6.56314V6.55537C8.83343 6.33435 8.74563 6.12239 8.58935 5.96611C8.43307 5.80983 8.22111 5.72203 8.0001 5.72203ZM7.44454 10.722V9.79648H8.55565V10.722H7.44454Z" fill="black"/>
</g>
</svg>
