<svg width="16" height="17" viewBox="0 0 16 17" fill="none" xmlns="http://www.w3.org/2000/svg">
<path fill-rule="evenodd" clip-rule="evenodd" d="M8.66669 15.7953V1.20465L3.12002 5.16665H0.666687V11.8333H3.12002L8.66669 15.7953ZM10 4.49998C11.0609 4.49998 12.0783 4.92141 12.8284 5.67156C13.5786 6.4217 14 7.43912 14 8.49998C14 9.56085 13.5786 10.5783 12.8284 11.3284C12.0783 12.0786 11.0609 12.5 10 12.5V13.8333C11.4145 13.8333 12.7711 13.2714 13.7713 12.2712C14.7715 11.271 15.3334 9.91447 15.3334 8.49998C15.3334 7.0855 14.7715 5.72894 13.7713 4.72875C12.7711 3.72855 11.4145 3.16665 10 3.16665V4.49998ZM10 7.16665C10.3536 7.16665 10.6928 7.30713 10.9428 7.55718C11.1929 7.80722 11.3334 8.14636 11.3334 8.49998C11.3334 8.85361 11.1929 9.19274 10.9428 9.44279C10.6928 9.69284 10.3536 9.83332 10 9.83332V11.1667C10.7073 11.1667 11.3855 10.8857 11.8856 10.3856C12.3857 9.88551 12.6667 9.20723 12.6667 8.49998C12.6667 7.79274 12.3857 7.11446 11.8856 6.61437C11.3855 6.11427 10.7073 5.83332 10 5.83332V7.16665Z" fill="black" fill-opacity="0.6"/>
</svg>
