<svg width="16" height="17" viewBox="0 0 16 17" fill="none" xmlns="http://www.w3.org/2000/svg">
<g clip-path="url(#clip0_6832_8392)">
<path fill-rule="evenodd" clip-rule="evenodd" d="M2.66674 4.68182C2.66674 4.10316 2.8915 3.54821 3.29158 3.13904C3.69165 2.72987 4.23427 2.5 4.80006 2.5H13.3334V11.5835H12.2667V13.4091H13.3334V14.5H4.62566C4.3672 14.5 4.11129 14.4477 3.87267 14.3461C3.63406 14.2445 3.41747 14.0956 3.23538 13.908C3.05329 13.7204 2.90929 13.4978 2.8117 13.253C2.71411 13.0083 2.66484 12.7462 2.66674 12.4818V4.68182ZM5.46513 3.66836H5.07846L4.95793 4.04418L3.72967 7.88309L4.743 8.22291L5.02139 7.35455H6.52272L6.80005 8.22236L7.81391 7.88309L6.58672 4.04418L6.46672 3.66836H5.46513ZM5.77232 5.008L6.17392 6.26364H5.37073L5.77232 5.008ZM12.0571 5.96909H8.86031V7.06H10.6416L9.00591 8.83109L8.86031 8.98927V10.1364H12.0848V9.04545H10.2758L11.9115 7.27382L12.0571 7.11618V5.96909ZM4.62566 11.5835C4.38895 11.5835 4.16193 11.6796 3.99455 11.8508C3.82717 12.022 3.73313 12.2542 3.73313 12.4963C3.73313 12.7384 3.82717 12.9705 3.99455 13.1417C4.16193 13.3129 4.38895 13.4091 4.62566 13.4091H11.2V11.5835H4.62566Z" fill="black" fill-opacity="0.6"/>
</g>
<defs>
<clipPath id="clip0_6832_8392">
<rect width="16" height="16" fill="white" transform="translate(0 0.5)"/>
</clipPath>
</defs>
</svg>
