<svg width="16" height="17" viewBox="0 0 16 17" fill="none" xmlns="http://www.w3.org/2000/svg">
    <path d="M12.8284 5.67153C12.0783 4.92139 11.0609 4.49996 10 4.49996V3.16663C11.4145 3.16663 12.771 3.72853 13.7712 4.72872C14.7714 5.72892 15.3333 7.08547 15.3333 8.49996C15.3333 9.91445 14.7714 11.271 13.7712 12.2712C12.771 13.2714 11.4145 13.8333 10 13.8333V12.5C11.0609 12.5 12.0783 12.0785 12.8284 11.3284C13.5786 10.5782 14 9.56083 14 8.49996C14 7.43909 13.5786 6.42168 12.8284 5.67153Z" fill="#FF7A00"/>
    <path d="M10.9428 7.55715C10.6928 7.3071 10.3536 7.16663 10 7.16663V5.83329C10.7072 5.83329 11.3855 6.11424 11.8856 6.61434C12.3857 7.11444 12.6667 7.79272 12.6667 8.49996C12.6667 9.2072 12.3857 9.88548 11.8856 10.3856C11.3855 10.8857 10.7072 11.1666 10 11.1666V9.83329C10.3536 9.83329 10.6928 9.69282 10.9428 9.44277C11.1929 9.19272 11.3333 8.85358 11.3333 8.49996C11.3333 8.14634 11.1929 7.8072 10.9428 7.55715Z" fill="#FF7A00"/>
    <path d="M8.66663 1.20471V15.7954L3.11996 11.8334H0.666626V5.16671H3.11996L8.66663 1.20471Z" fill="black"/>
</svg>
