<svg width="16" height="17" viewBox="0 0 16 17" fill="none" xmlns="http://www.w3.org/2000/svg">
<g opacity="0.6">
<g clip-path="url(#clip0_6809_6877)">
<path fill-rule="evenodd" clip-rule="evenodd" d="M5.93201 2.875H8.51901L8.66251 3.3L9.50751 5.8L8.32351 6.2L7.62201 4.125H6.82901L4.96601 9.6355H7.32401V10.8855H4.54351L3.59201 13.7005L3.39201 14.292L2.20801 13.892L2.40801 13.3L5.78801 3.3L5.93201 2.875ZM9.69701 6.375H9.24851L9.10501 6.8L6.90801 13.3L6.70801 13.892L7.89201 14.292L8.09201 13.7L8.66001 12.0195H11.8325L12.401 13.7L12.601 14.292L13.785 13.892L13.585 13.3L11.388 6.8L11.244 6.375H9.69701ZM11.41 10.7695H9.08251L10.1455 7.625H10.3475L11.41 10.7695Z" fill="black"/>
</g>
</g>
<defs>
<clipPath id="clip0_6809_6877">
<rect width="12" height="12" fill="white" transform="translate(2 2.5)"/>
</clipPath>
</defs>
</svg>
